<svg xmlns="http://www.w3.org/2000/svg" width="682.667" height="682.667" version="1.0" viewBox="0 0 512 512">
  <path d="M235 1.1c-40 4.1-81.3 21.3-112.3 46.7-10.1 8.3-27 26.1-34.9 36.5-22.8 30.6-36.5 66-40.8 104.9-.6 6.3-1 55.4-1 138.2v128.4l3.5 1.2c4.5 1.5 11.7 9.6 14.6 16.4l2.2 5.5 6.3-5.7c11.7-10.7 25.5-17.1 37-17.2 11.6 0 21.4 7.6 24.9 19.2 1.9 6.5 1.9 21.4 0 29.3-.8 3.3-1.4 6.3-1.5 6.7 0 .5 56.3.8 125 .8 68.8 0 125-.3 125-.8 0-.4-.7-3.9-1.5-7.7-3-14.3-1.3-28.6 4.4-37 6.5-9.6 19.8-13 33.1-8.5 8.1 2.7 16.3 7.7 24.3 14.6 3.4 3 6.4 5.4 6.7 5.4.3 0 1.2-1.7 1.9-3.8 2.1-5.7 5.6-10.7 10.1-14.3l4-3.2V327.8c0-147.2 0-147.2-8.5-176.8-13.8-47.8-45.8-90.3-89.2-118.4C330.8 8.4 280.4-3.5 235 1.1zM135.9 82c.6 0-.6 1.7-2.6 3.8l-3.8 3.8-1.3-2.3c-.7-1.3-1.6-2.3-2-2.3-.4 0-1.3-.4-2-.8-.9-.6-.4-1.8 2-4.4l3.3-3.5 2.7 2.9c1.4 1.5 3.1 2.8 3.7 2.8zm224.5-.6c4.9 2 11 7.9 13.1 12.5 1.6 3.6 2 3.9 4.2 3 10.7-4 23.4 4.8 23.3 16.3-.1 5.4-3.4 11.4-8.1 14.5-4.2 2.7-4.6 2.8-21.1 3.2l-16.8.3 1.9 2.7c6.4 9 13.8 27.5 17.2 43.2 3.3 14.7 3.3 39.3.1 52.2-8 32-29.6 60.5-58.6 77.2-12.9 7.4-17.3 11-20.6 16.8-1.6 2.9-3 5.7-3 6.3 0 .6 1.9 1.4 4.2 1.8 3 .5 5.3 1.8 8.4 4.9 5.5 5.5 6.6 11.2 3.6 18.1l-2.1 4.6h-99.6l-1.4-2.2c-2.3-3.8-3.1-9-1.9-13.5 1.2-5 7.2-11 11.8-12 1.7-.3 3-.7 3-1 0-1.3-3.2-6.1-5.3-8.2l-2.6-2.3-2.8 2.7c-1.5 1.5-4.8 3.7-7.3 4.9-4.4 2.1-5.7 2.1-57.3 2.4-34.4.2-54.1-.1-56.6-.8-2.4-.6-5.2-2.5-7.4-4.9-6.3-6.9-6.2-15.8.2-22.2 3.6-3.6 10.9-6.6 13.6-5.5 1 .3 1.4-1.9 1.7-9.2.3-8.3.8-10.7 3.5-16.4 4-8.6 10.9-15.5 19.5-19.7 5.5-2.7 8.2-3.4 15.3-3.9l8.6-.5-.6-2.6c-6.8-25.9-7-48.6-.9-69.9 11.4-39.2 44.3-71.9 85.8-85.1 32-10.2 68.3-7 93.7 8.5 3.1 1.8 5.9 3.4 6.2 3.4.2 0 .7-1.3 1-2.8 1.1-5.3 6.9-12.5 12.6-15.4 6.1-3.2 15.7-3.8 21.5-1.4zm53.1 86.6c.8 1.6 2.9 3.7 4.5 4.5 3.7 1.9 3.7 2.6 0 4.7-1.7 1-3.8 3.1-4.8 4.8-.9 1.6-2 3-2.3 3-.3 0-1.3-1.5-2.1-3.4-1-1.9-3-4-4.7-4.7-1.7-.8-3.1-1.6-3.1-1.9 0-.3 1.4-1.3 3-2.2 1.7-1 3.8-3.1 4.8-4.8 2.1-3.7 2.8-3.7 4.7 0zm0 160.2c1.8 4.4 4.7 7.4 9.5 9.8 2.2 1.1 4 2.4 4 2.9s-1.5 1.4-3.3 2c-3.8 1.3-7.7 5.1-10.1 9.8-2.1 4.2-3.2 4.1-4.9 0-1.5-3.5-7.9-9.7-10.1-9.7-.8 0-1.9-.7-2.6-1.5-1-1.2-.7-1.7 1.6-2.7 5.5-2.3 8.7-5.2 10.6-9.5 1-2.3 2.3-4.3 2.9-4.3.6 0 1.6 1.5 2.4 3.2zm-16.9 33.3c.3.8 1.5 1.7 2.5 2 1.9.6 1.8.8-.8 3.4l-2.8 2.7-2.6-2.4-2.7-2.4 2.2-2.3c2.5-2.7 3.5-3 4.2-1zm-89.1 3.7c1.2 2.1 1.9 5.2 1.9 8.3 0 3.1-.7 6.2-1.9 8.2l-1.9 3.3h-49.2c-54.9 0-50.8.5-53.4-7.3-1.2-3.9-.7-8.4 1.6-13l1.5-2.7h99.5l1.9 3.2zm-181.9 25.5c2.4 6.1 8.6 12.3 14.7 14.7 2.6 1 4.7 2.4 4.7 3.2 0 .8-2.4 2.5-5.2 3.8-6.3 2.8-10.8 7.3-14 14.1-1.3 2.7-2.8 5-3.3 5-.6 0-2.3-2.5-3.8-5.5-3.7-7.2-6.8-10.4-13.3-13.4-3-1.4-5.4-3.2-5.4-4 0-.8 1.9-2.1 4.3-3.1 6.9-2.7 10.4-6.1 13.7-13 1.7-3.6 3.7-6.5 4.5-6.5.7 0 2.1 2.1 3.1 4.7zm181.5-.5c3.6 6.7 2.9 14.3-1.8 19.9-5 5.8-5.4 5.9-49 5.9-36.5 0-40.1-.2-43.8-1.9-4.8-2.2-6.9-4.4-9.1-9.6-1.8-4.4-1.3-10.5 1.2-14.3l1.4-2.2h99.9l1.2 2.2z"/>
  <path d="M198.9 142.5c-23.8 7.6-31.5 37.1-14.4 55.4 16 17.1 43.9 12.9 54.5-8.1 5.1-10.4 5.2-10.2-10.7-12.3-7.6-1-14.4-2.1-15.1-2.5-.7-.3 5.4-1.2 13.5-1.9s15-1.4 15.4-1.7c1.2-.7-1.1-8.6-3.7-13.1-6-10.4-16-16.4-27.8-17-4.4-.2-8.9.3-11.7 1.2zM293.5 142.3c-6.3 2.1-9.8 4.3-14.3 8.7-4.5 4.5-8.9 12.7-9.4 17.5l-.3 3L285 173c8.5.9 14.6 1.9 13.5 2.2-1.1.4-8 1.4-15.2 2.4-15.5 2-15.4 1.9-10.3 12.2 10.3 20.4 36.3 25 53.2 9.3 2.5-2.2 5.7-6.6 7.3-9.8 2.5-5 2.9-6.9 2.9-14.3.1-10.2-2.7-17.3-9.4-24-8.2-8.2-23.2-12.1-33.5-8.7zM245.2 200.1c.2 1.2 1.6 3.1 3.1 4.3 5.9 4.3 17.6 1.6 18.5-4.3.4-2.8-.5-2.7-3.4.4-1.2 1.3-3.4 2.7-4.8 3.1-3.7.9-7.4-.3-10-3.1-2.9-3.1-3.8-3.2-3.4-.4zM233.1 234.6c-6.7 5.6-2 15.4 7.3 15.4h4.6l.2 40.2c.2 31 .6 40.2 1.6 40.6.9.3 1.2-8.2 1.2-40.2V250h16v40.6c0 32 .3 40.5 1.3 40.2.9-.4 1.3-9.6 1.5-40.5l.2-40 5-.5c9.6-1 13.3-8.7 7.1-14.9-6.6-6.6-14.9-1.2-15 9.8l-.1 3.3h-16v-3.4c0-5.2-2-9.5-5.1-11.1-4-2.1-6.3-1.9-9.8 1.1zm9.9 1.4c1.5 1.5 2 3.3 2 7 0 4.9-.1 5-2.9 5-3.6 0-8.3-1.7-9.3-3.3-1.6-2.6-.8-6.6 1.8-8.6 3.3-2.6 5.8-2.7 8.4-.1zm34.4.1c5.6 4.4 1.6 11.9-6.5 11.9H267v-5c0-8.1 4.8-11.3 10.4-6.9z"/>
</svg>
